<svg xmlns="http://www.w3.org/2000/svg" width="90.593" height="104.531" viewBox="0 0 90.593 104.531"><path d="M857.883,628.751H784.711a1.743,1.743,0,0,0-1.743,1.742v3.485h-5.227A1.742,1.742,0,0,0,776,635.719v13.938a1.742,1.742,0,0,0,1.742,1.742h5.227v3.485a1.742,1.742,0,0,0,1.743,1.742h5.227v22.648a6.969,6.969,0,1,0,13.937,0v-5.547a5.176,5.176,0,0,0,6.969-4.906v-12.2h47.039a1.742,1.742,0,0,0,1.742-1.742V651.4h3.484v19.164H821.3a1.743,1.743,0,0,0-1.743,1.742v8.711H816.07a1.743,1.743,0,0,0-1.743,1.742v5.227h-3.484a1.743,1.743,0,0,0-1.743,1.742v41.812a1.743,1.743,0,0,0,1.743,1.743H831.75a1.743,1.743,0,0,0,1.742-1.743V689.727a1.743,1.743,0,0,0-1.742-1.742h-3.485v-5.227a1.742,1.742,0,0,0-1.742-1.742h-3.485v-6.969h41.812a1.742,1.742,0,0,0,1.742-1.742V635.719a1.742,1.742,0,0,0-1.742-1.742h-5.226v-3.485A1.743,1.743,0,0,0,857.883,628.751ZM830.007,729.8H812.586V691.47h17.422Zm-5.227-41.812h-6.968V684.5h6.968Zm-45.3-40.07V637.461h3.484v10.453Zm20.906,31.359a3.485,3.485,0,1,1-6.969,0V649.657a3.485,3.485,0,1,1,6.969,0Zm6.969-10.453a1.742,1.742,0,1,1-3.485,0V640.946a1.742,1.742,0,0,1,3.485,0Zm48.781-15.68h-45.3v-12.2a5.227,5.227,0,0,0-10.453,0v2.712a6.893,6.893,0,0,0-3.485-.97,6.977,6.977,0,0,0-6.968,6.969v3.484h-3.485V632.235H856.14Zm6.969-15.68v10.453h-3.484V637.461Z" transform="translate(-776 -628.751)"/></svg>