<svg xmlns="http://www.w3.org/2000/svg" width="140" height="28" viewBox="0 0 140 28"><path d="M288.667,851.751H153.333A2.334,2.334,0,0,0,151,854.084v23.333a2.334,2.334,0,0,0,2.333,2.334H288.667A2.334,2.334,0,0,0,291,877.417V854.084A2.334,2.334,0,0,0,288.667,851.751ZM277,875.084h-8.261a13.914,13.914,0,0,0,0-18.667H277Zm-102.667-9.333a9.334,9.334,0,1,1,9.334,9.333A9.334,9.334,0,0,1,174.333,865.751Zm19.739-9.334h15.261v7a2.334,2.334,0,0,0,2.334,2.334h18.666a2.334,2.334,0,0,0,2.334-2.334v-7h15.261a13.914,13.914,0,0,0,0,18.667H194.072A13.914,13.914,0,0,0,194.072,856.417ZM249,865.751a9.333,9.333,0,1,1,9.333,9.333A9.334,9.334,0,0,1,249,865.751Zm-21-9.334v4.667H214v-4.667Zm-72.333,0h4.666v18.667h-4.666Zm9.333,0h8.261a13.914,13.914,0,0,0,0,18.667H165Zm121.333,18.667h-4.666V856.417h4.666Z" transform="translate(-151 -851.751)"/></svg>