<svg xmlns="http://www.w3.org/2000/svg" width="118.851" height="104.985" viewBox="0 0 118.851 104.985"><path d="M561.928,666.489h-3.962V632.815H542.119v20.521l-6.43-22.5h-42.6l-6.43,22.5V636.777H451V692.24h11.885v27.794a9.8,9.8,0,0,0-1.981,5.881,9.9,9.9,0,1,0,17.828-5.881V692.24h7.923v-8.635l6.43,22.5h42.6l6.43-22.5v36.3h.1a9.9,9.9,0,1,0,15.745.123V670.451h7.923V654.6h3.962v-3.962h-7.923Zm-15.847-29.713H554V716.85a9.772,9.772,0,0,0-7.923,0Zm-59.426,25.751h55.464v11.885H486.655Zm9.417-27.731H532.7l6.79,23.77h-50.21Zm-25.264,97.062a5.943,5.943,0,1,1,5.943-5.943A5.943,5.943,0,0,1,470.808,731.857Zm3.962-15.007a9.772,9.772,0,0,0-7.923,0V692.24h7.923Zm7.923-28.571H454.962v-47.54h27.731ZM532.7,702.145h-36.63l-6.79-23.77h50.21Zm17.341,29.713a5.943,5.943,0,1,1,5.943-5.943A5.943,5.943,0,0,1,550.043,731.857Z" transform="translate(-451 -630.834)"/></svg>