<svg xmlns="http://www.w3.org/2000/svg" width="28.6" height="78" viewBox="0 0 28.6 78"><path d="M237.4,704.951a1.3,1.3,0,0,0,1.3-1.3v-15.6a1.3,1.3,0,0,0-1.3-1.3H214a1.3,1.3,0,0,0-1.3,1.3v15.6a1.3,1.3,0,0,0,1.3,1.3h6.5v23.4h-1.3a1.3,1.3,0,0,0-1.3,1.3v3.9h-5.2a1.3,1.3,0,0,0-1.3,1.3V749.33a15.948,15.948,0,0,0,6.8,13.056,13.085,13.085,0,0,0,15.006,0A15.948,15.948,0,0,0,240,749.33V734.851a1.3,1.3,0,0,0-1.3-1.3h-5.2v-3.9a1.3,1.3,0,0,0-1.3-1.3h-1.3v-23.4Zm-22.1-15.6h20.8v13H215.3Zm22.1,59.979a13.349,13.349,0,0,1-5.688,10.925,10.644,10.644,0,0,1-12.025,0A13.35,13.35,0,0,1,214,749.33V736.151h7.8v7.8a3.9,3.9,0,1,0,7.8,0v-7.8h7.8Zm-13-13.179H227v7.8a1.3,1.3,0,0,1-2.6,0Zm-3.9-2.6v-2.6h10.4v2.6Zm7.8-5.2h-5.2v-23.4h5.2Z" transform="translate(-211.4 -686.751)"/></svg>