<svg xmlns="http://www.w3.org/2000/svg" width="37.868" height="71" viewBox="0 0 37.868 71"><path d="M1135.733,735.351h7.05l-.886,21.256a6.859,6.859,0,1,0,13.706,0l-.887-21.256h7.051a5.925,5.925,0,0,0,5.917-5.917v-35.5a1.184,1.184,0,0,0-1.184-1.183H1131a1.184,1.184,0,0,0-1.184,1.183v35.5A5.924,5.924,0,0,0,1135.733,735.351Zm17.505,21.355a4.492,4.492,0,1,1-8.976,0l.889-21.355h7.2Zm12.079-27.272a3.554,3.554,0,0,1-3.55,3.55h-26.034a3.553,3.553,0,0,1-3.55-3.55V714.051h2.367v8.283a3.55,3.55,0,1,0,7.1,0v-1.4a3.509,3.509,0,0,0,1.183.218,3.553,3.553,0,0,0,3.55-3.55v-3.55h18.934Zm-21.3-15.383v3.55a1.183,1.183,0,0,1-2.367,0v-3.55Zm-4.734,8.283a1.183,1.183,0,1,1-2.366,0v-8.283h2.366Zm2.367-23.667v-3.55h2.367V703.4a1.183,1.183,0,0,1-2.367,0Zm-2.367-3.55v3.55a1.183,1.183,0,1,1-2.366,0v-3.55Zm-7.1,0h2.367v3.55a3.514,3.514,0,0,0,4.733,3.333v1.4a3.55,3.55,0,0,0,7.1,0v-8.284h7.1v9.467a1.183,1.183,0,1,0,2.367,0v-9.467h2.367v9.467a1.183,1.183,0,1,0,2.366,0v-9.467h4.734v16.567h-33.134Z" transform="translate(-1129.816 -692.751)"/></svg>