<svg xmlns="http://www.w3.org/2000/svg" width="107.5" height="43" viewBox="0 0 107.5 43"><g transform="translate(-1091 -845.251)"><path d="M1196.708,848.834h-16.125v-1.791a1.793,1.793,0,0,0-1.791-1.792h-7.167a1.793,1.793,0,0,0-1.792,1.792v1.791h-77.041a1.793,1.793,0,0,0-1.792,1.792v9.065a1.785,1.785,0,0,0,.642,1.373l6.294,5.267a1.787,1.787,0,0,0,1.517.38l7.179-1.507,5.627,4.709a1.772,1.772,0,0,0,1.517.379l7.184-1.506,5.63,4.71a1.773,1.773,0,0,0,1.517.38l7.184-1.507,5.627,4.708a1.774,1.774,0,0,0,1.517.38l7.184-1.506,5.631,4.71a1.769,1.769,0,0,0,1.517.379l7.263-1.518,5.8,4.26v2.677a1.792,1.792,0,0,0,1.792,1.792h7.167a1.792,1.792,0,0,0,1.791-1.792v-1.791h16.125a1.793,1.793,0,0,0,1.792-1.792v-32.25a1.793,1.793,0,0,0-1.792-1.792Zm-31.2,27.327a1.788,1.788,0,0,0-1.06-.349,1.807,1.807,0,0,0-.367.039l-7.2,1.505-5.63-4.71a1.771,1.771,0,0,0-1.517-.38l-7.184,1.506-5.627-4.708a1.787,1.787,0,0,0-1.517-.38l-7.184,1.507-5.631-4.71a1.78,1.78,0,0,0-1.517-.38l-7.184,1.506-5.627-4.708a1.791,1.791,0,0,0-1.517-.38l-7.179,1.507-4.985-4.171v-6.437h75.25v26.92ZM1177,884.668h-3.583V848.834H1177Zm17.917-3.584h-14.334V852.418h14.334Z"/><path d="M1187.75,877.5a1.792,1.792,0,0,0,1.792-1.792V857.793a1.792,1.792,0,1,0-3.584,0v17.916a1.792,1.792,0,0,0,1.792,1.792Z"/><path d="M1164.458,856h-17.916a1.792,1.792,0,1,0,0,3.583h17.916a1.792,1.792,0,1,0,0-3.583Z"/><path d="M1139.375,856h-3.583a1.792,1.792,0,1,0,0,3.583h3.583a1.792,1.792,0,1,0,0-3.583Z"/><path d="M1101.75,886.459a1.792,1.792,0,1,0,3.583,0,5.382,5.382,0,0,1,5.375-5.375,1.792,1.792,0,1,0,0-3.583,5.382,5.382,0,0,1-5.375-5.375,1.792,1.792,0,1,0-3.583,0,5.381,5.381,0,0,1-5.375,5.375,1.792,1.792,0,1,0,0,3.583A5.381,5.381,0,0,1,1101.75,886.459Zm1.792-8.963a9.025,9.025,0,0,0,1.8,1.8,8.992,8.992,0,0,0-1.8,1.8,9.018,9.018,0,0,0-1.8-1.8A9.051,9.051,0,0,0,1103.542,877.5Z"/><path d="M1099.958,854.209h3.584v3.584h-3.584Z"/></g></svg>